<mxfile host="app.diagrams.net" modified="2022-12-28T04:08:19.446Z" agent="5.0 (Macintosh; Intel Mac OS X 10_15_7) AppleWebKit/537.36 (KHTML, like Gecko) Chrome/108.0.0.0 Safari/537.36" version="20.7.4" etag="1Vo4wwxG3Nbfx5TkTYmT" type="github">
  <diagram id="e37o9wDyKMvmyTCemWAV" name="Page-1">
    <mxGraphModel dx="2092" dy="796" grid="1" gridSize="10" guides="1" tooltips="1" connect="1" arrows="1" fold="1" page="1" pageScale="1" pageWidth="850" pageHeight="1100" math="0" shadow="0">
      <root>
        <mxCell id="0" />
        <mxCell id="1" parent="0" />
        <mxCell id="9Dt7NDc4FKlgnwWTWBW5-3" style="rounded=0;orthogonalLoop=1;jettySize=auto;html=1;exitX=0;exitY=0.5;exitDx=0;exitDy=0;entryX=1;entryY=0.5;entryDx=0;entryDy=0;fontSize=18;dashed=1;" edge="1" parent="1" source="9Dt7NDc4FKlgnwWTWBW5-1" target="9Dt7NDc4FKlgnwWTWBW5-2">
          <mxGeometry relative="1" as="geometry" />
        </mxCell>
        <mxCell id="9Dt7NDc4FKlgnwWTWBW5-1" value="&lt;font style=&quot;font-size: 18px;&quot;&gt;discovery_v2 原接口&lt;/font&gt;" style="rounded=0;whiteSpace=wrap;html=1;" vertex="1" parent="1">
          <mxGeometry x="130" y="200" width="180" height="60" as="geometry" />
        </mxCell>
        <mxCell id="9Dt7NDc4FKlgnwWTWBW5-2" value="原有逻辑" style="ellipse;whiteSpace=wrap;html=1;fontSize=18;" vertex="1" parent="1">
          <mxGeometry x="-80" y="190" width="120" height="80" as="geometry" />
        </mxCell>
        <mxCell id="9Dt7NDc4FKlgnwWTWBW5-5" style="rounded=0;orthogonalLoop=1;jettySize=auto;html=1;exitX=0;exitY=0.5;exitDx=0;exitDy=0;entryX=1;entryY=0.5;entryDx=0;entryDy=0;fontSize=18;dashed=1;" edge="1" parent="1" source="9Dt7NDc4FKlgnwWTWBW5-6" target="9Dt7NDc4FKlgnwWTWBW5-7">
          <mxGeometry relative="1" as="geometry" />
        </mxCell>
        <mxCell id="9Dt7NDc4FKlgnwWTWBW5-6" value="&lt;font style=&quot;font-size: 18px;&quot;&gt;discovery_v2 原接口&lt;/font&gt;" style="rounded=0;whiteSpace=wrap;html=1;" vertex="1" parent="1">
          <mxGeometry x="130" y="360" width="180" height="60" as="geometry" />
        </mxCell>
        <mxCell id="9Dt7NDc4FKlgnwWTWBW5-7" value="请求新发现页" style="ellipse;whiteSpace=wrap;html=1;fontSize=18;" vertex="1" parent="1">
          <mxGeometry x="-80" y="350" width="120" height="80" as="geometry" />
        </mxCell>
        <mxCell id="9Dt7NDc4FKlgnwWTWBW5-8" value="" style="endArrow=classic;html=1;rounded=0;fontSize=18;strokeWidth=2;strokeColor=#B266FF;" edge="1" parent="1">
          <mxGeometry width="50" height="50" relative="1" as="geometry">
            <mxPoint x="90" y="270" as="sourcePoint" />
            <mxPoint x="90" y="360" as="targetPoint" />
          </mxGeometry>
        </mxCell>
        <mxCell id="9Dt7NDc4FKlgnwWTWBW5-9" value="注意，这里接口不变，只是内部实现更改" style="text;html=1;align=center;verticalAlign=middle;resizable=0;points=[];autosize=1;strokeColor=none;fillColor=none;fontSize=18;" vertex="1" parent="1">
          <mxGeometry x="120" y="300" width="350" height="40" as="geometry" />
        </mxCell>
      </root>
    </mxGraphModel>
  </diagram>
</mxfile>
